<?xml version="1.0" encoding="UTF-8" standalone="no"?>
<!-- Created with Inkscape (http://www.inkscape.org/) -->

<svg
   width="232.04634mm"
   height="113.11731mm"
   viewBox="0 0 232.04634 113.11731"
   version="1.1"
   id="svg5"
   inkscape:version="1.1 (c68e22c387, 2021-05-23)"
   sodipodi:docname="logo2.svg"
   xmlns:inkscape="http://www.inkscape.org/namespaces/inkscape"
   xmlns:sodipodi="http://sodipodi.sourceforge.net/DTD/sodipodi-0.dtd"
   xmlns="http://www.w3.org/2000/svg"
   xmlns:svg="http://www.w3.org/2000/svg">
  <sodipodi:namedview
     id="namedview7"
     pagecolor="#ffffff"
     bordercolor="#666666"
     borderopacity="1.0"
     inkscape:pageshadow="2"
     inkscape:pageopacity="0.0"
     inkscape:pagecheckerboard="0"
     inkscape:document-units="mm"
     showgrid="false"
     showguides="true"
     inkscape:guide-bbox="true"
     inkscape:zoom="1"
     inkscape:cx="373.5"
     inkscape:cy="173.5"
     inkscape:window-width="1600"
     inkscape:window-height="838"
     inkscape:window-x="-8"
     inkscape:window-y="-8"
     inkscape:window-maximized="1"
     inkscape:current-layer="layer1"
     fit-margin-top="0"
     fit-margin-left="0"
     fit-margin-right="0"
     fit-margin-bottom="0" />
  <defs
     id="defs2" />
  <g
     inkscape:label="Layer 1"
     inkscape:groupmode="layer"
     id="layer1"
     transform="translate(26.181818,-56.674788)">
    <g
       id="g2218"
       transform="matrix(1.1637295,0,0,1,-33.605482,0)">
      <g
         id="g70312"
         transform="matrix(3.0668846,0.04682126,-0.03605439,2.3616339,-16.977165,14.487949)">
        <g
           aria-label="-PHILS FANTASTIC-"
           transform="rotate(2.100994,120.95457,-1667.323)"
           id="text13163"
           style="font-size:7.34981px;line-height:1.25;font-family:Ravie;-inkscape-font-specification:'Ravie, Normal';fill:#ff0000;stroke:#000000;stroke-width:0.344522"
           inkscape:transform-center-x="0.5165999"
           inkscape:transform-center-y="-10.845671">
          <path
             d="m 74.84702,53.646517 q 0.07396,-0.01449 0.295545,0.01524 0.233532,0.0347 0.24831,0.03546 0.04192,0.437942 0.15783,1.029608 0.04071,0.207787 0.07397,0.340237 0.265411,1.056073 0.279211,1.126509 0.06141,0.313442 -0.0035,0.355416 -0.03598,0.02168 -0.120504,0.03824 -0.359226,0.07038 -0.768748,-0.134638 -0.16496,-1.364655 -0.200229,-2.776661 -0.0041,-0.02113 0.03812,-0.02941 z"
             style="font-size:7.34981px"
             id="path70206" />
          <path
             d="m 73.513232,46.50236 q 0.401737,0.01285 0.840894,0.202848 1.462467,0.639247 1.419311,1.987936 -0.01768,0.552389 -0.283912,1.01783 -0.151971,0.260843 -0.486847,0.627141 1.137461,-0.200583 2.391569,-0.792401 0.24707,1.480057 0.535118,3.026055 -0.130278,0.03174 -0.280929,0.02692 -0.186521,-0.006 -0.209449,-0.07492 -0.03174,-0.130277 -0.106202,-0.384003 -0.09183,-0.272234 -0.317804,-0.279465 -0.03228,-10e-4 -0.06827,0.0014 -1.58491,0.157541 -2.542623,0.126896 -1.00793,-0.03225 -1.948683,-0.256248 0.07504,0.23579 0.06861,0.436659 -0.0083,0.25826 -0.125083,0.430462 L 71.49709,52.50598 q 0.537895,-0.988159 0.570492,-2.00685 0.01033,-0.322824 -0.03845,-1.042508 -0.04867,-0.72327 -0.03685,-1.092725 0.03156,-0.986408 0.484894,-1.463815 0.393989,-0.418267 1.036051,-0.397722 z m 0.149476,0.827033 q -0.26902,-0.0086 -0.440733,0.420361 -0.167668,0.414737 -0.189705,1.103429 -0.02422,0.756844 0.243225,1.375806 0.253784,0.596981 0.562261,0.606852 0.193695,0.0062 0.357402,-0.509203 0.151569,-0.472701 0.168097,-0.98922 0.02204,-0.688692 -0.187327,-1.327339 -0.219091,-0.671274 -0.51322,-0.680686 z"
             style="font-size:7.34981px"
             id="path70208" />
          <path
             d="m 79.381383,40.378706 q -0.152797,0.135675 -0.260183,0.470579 -0.136972,0.427174 -0.157547,1.008502 -0.02496,0.594997 0.08631,1.094232 -1.305409,-0.712537 -2.016227,-0.940458 l -0.187957,-0.06027 q -0.06953,0.369654 -0.361026,1.772382 1.000516,0.252974 2.19779,0.244925 -0.632064,0.701831 -0.900529,1.539093 -0.162175,0.505774 -0.05692,0.776954 l -0.789678,-0.275819 q -0.0151,-0.129211 0.0364,-0.289829 0.08437,-0.263139 0.308602,-0.504047 -0.736131,0.03908 -2.134346,-0.254733 -1.114961,-0.236908 -2.106005,-0.554682 -0.256305,-0.08218 -0.411869,0.109135 -0.01012,0.0081 -0.225694,0.410032 -0.04106,0.08105 -0.307621,-0.0044 -0.02734,-0.0088 -0.07983,-0.03313 -0.0559,-0.02546 -0.06957,-0.02985 0.05886,-0.113034 1.214142,-2.893271 0.69364,0.610594 1.335479,0.95961 0.468258,0.25567 1.211189,0.512732 0.365988,-1.14141 0.597086,-1.674078 -0.06616,-0.02875 -0.165261,-0.06053 -1.220009,-0.391192 -2.501063,0.03094 0.198982,-1.25526 0.408827,-2.849992 0.0033,-0.01025 0.14314,0.01198 0.140949,0.01881 0.260557,0.05717 0.150366,0.04821 0.188477,0.105659 0.0031,0.566302 0.187626,0.625474 -0.06151,-0.01972 0.408081,0.05548 0.467272,0.07068 1.065316,0.262445 0.693731,0.222443 1.27025,0.516595 0.573101,0.293056 0.750435,0.515743 -0.08772,-0.325859 0.0054,-0.616337 0.04602,-0.143531 0.111974,-0.231678 z"
             style="font-size:7.34981px"
             id="path70210" />
          <path
             d="m 81.635267,36.968711 q 0.04039,0.02335 0.01525,0.06685 -0.01975,0.03418 -0.374272,0.52565 -0.349615,0.490161 -0.54895,0.835054 -0.323247,0.559286 -0.906821,2.099714 -0.114964,-0.06645 -0.510315,-0.415149 -0.0044,-0.0067 0.09851,-0.29954 0.112394,-0.316386 0.05718,-0.493377 -0.04031,-0.131068 -0.83537,-0.756386 -0.860654,-0.683953 -1.569083,-1.093398 -0.621429,-0.359163 -0.931201,-0.368251 -0.08141,-0.0097 -0.138878,0.08968 -0.0413,0.07146 -0.06915,0.212881 -0.03095,0.139621 -0.04173,0.158264 -0.03053,0.05282 -0.295489,0.07378 -0.263164,0.01785 -0.356378,-0.03603 -0.0435,-0.02514 0.02294,-0.140105 0.240639,-0.416358 0.678642,-1.410871 0.504591,-1.138411 0.661906,-1.718988 -0.0079,-0.02942 0.169239,0.07294 0.161572,0.09338 0.154104,0.163678 -0.07106,0.510224 0.384356,0.955818 0.261401,0.250561 1.332456,0.964927 0.194781,0.129156 0.347031,0.217151 1.075073,0.621351 1.492167,0.530811 0.118982,-0.02657 0.192611,-0.153962 0.05208,-0.09011 0.08987,-0.26308 0.03648,-0.177876 0.04906,-0.199627 0.01616,-0.02796 0.111657,0.01479 0.441014,0.205149 0.720657,0.366772 z"
             style="font-size:7.34981px"
             id="path70212" />
          <path
             d="m 83.798395,31.294625 q 0.410555,0.353702 0.694328,0.816077 0.205467,0.333334 0.336061,0.720586 0.06099,0.204125 0.127039,0.407873 0.01661,0.0522 -0.03606,0.09683 -1.016604,0.872103 -1.796623,1.7775 -1.030656,1.19632 -0.910142,1.721733 L 81.422425,36.36729 q 0.02861,-0.231147 0.227713,-0.462254 0.100723,-0.116913 0.264524,-0.241064 -1.261274,-0.432918 -2.906214,-1.85007 -0.122351,-0.105408 -0.367806,-0.326346 -0.245832,-0.226 -0.379058,-0.340778 -0.231107,-0.199104 -0.490487,0.0085 -0.08818,0.08035 -0.285146,0.237508 -0.08228,0.05701 -0.32426,-0.151459 -0.06253,-0.05388 -0.107544,-0.111599 0.06898,-0.03058 2.352861,-2.236203 0.271268,0.636343 0.860438,1.475511 0.62096,0.890241 1.134834,1.332955 1.231666,1.061107 2.042136,0.120364 0.587942,-0.682446 0.62713,-1.250275 0.03024,-0.414485 -0.203587,-0.615931 -0.122351,-0.105408 -0.173884,-0.04559 -0.01171,0.01359 -0.01255,0.03656 -0.07018,0.664287 -0.447309,1.102032 -0.344333,0.399679 -0.822355,0.404703 -0.210986,0.003 -0.346931,-0.114148 -0.222951,-0.192077 -0.212498,-0.63308 0.0061,-0.430504 0.230093,-0.943372 0.175803,-0.4075 0.353826,-0.614137 0.5083,-0.590004 1.362038,0.14551 z"
             style="font-size:7.34981px"
             id="path70214" />
          <path
             d="m 88.862872,27.198983 q 0.202259,0.269987 0.403679,0.760325 0.270234,0.654023 -0.125686,1.44836 -0.411011,0.828064 -1.456492,1.611277 -1.025377,0.768153 -1.921879,0.816467 -0.747207,0.04409 -1.065657,-0.380996 -0.20441,-0.272859 -0.141054,-0.625242 0.07056,-0.402621 0.476311,-0.800753 0.202515,-0.196553 0.438036,-0.372991 0.485402,-0.363635 0.872311,-0.433763 0.373988,-0.06942 0.54182,0.154615 0.253899,0.33892 0.06629,0.842681 -0.08842,0.241117 -0.39515,0.699594 -0.119961,0.175066 -0.08553,0.221022 0.105432,0.140738 0.699978,-0.304662 0.468169,-0.350725 0.691599,-0.728859 0.277311,-0.467823 0.04063,-0.783766 -0.03443,-0.04595 -0.0911,-0.09766 -0.792008,-0.716037 -0.995076,-0.819506 -0.426231,-0.209818 -0.908761,0.151665 -0.126377,0.09467 -0.407883,0.359371 -0.280784,0.259673 -0.415778,0.360802 -0.927721,0.694995 -1.489312,-0.05465 -0.17859,-0.238393 -0.339858,-0.65119 -0.222196,-0.559971 0.01069,-1.164911 0.278169,-0.724062 1.185785,-1.403995 0.933466,-0.699298 1.675679,-0.79794 0.67402,-0.08791 0.981711,0.322811 0.45831,0.611779 -0.518239,1.343353 -0.476786,0.35718 -0.928304,0.448804 -0.422806,0.08805 -0.564817,-0.101514 -0.204411,-0.272859 0.09372,-0.742824 0.119241,-0.170043 0.241354,-0.342237 0.1056,-0.164308 0.06257,-0.221752 -0.0581,-0.07755 -0.305055,0.01778 -0.24624,0.0903 -0.501866,0.281802 -0.315942,0.236686 -0.441687,0.487831 -0.150895,0.301374 0.0277,0.539767 0.08392,0.112016 0.239617,0.206127 0.271202,0.200403 0.542403,0.400806 0.2956,0.209029 0.561175,0.198408 0.348119,-0.01416 0.833521,-0.377798 0.04308,-0.03228 0.266404,-0.213027 0.22117,-0.183624 0.336058,-0.269691 0.551463,-0.413124 0.934048,-0.453108 0.488818,-0.04782 0.876121,0.469175 z"
             style="font-size:7.34981px"
             id="path70216" />
          <path
             d="m 96.784476,21.844342 q 0.162049,0.460387 0.05312,0.734612 -0.108925,0.274225 -0.521919,0.419592 -0.558557,0.196603 -1.178017,0.144517 -0.709235,-0.05853 -0.847453,-0.451215 -0.103663,-0.294512 0.130514,-0.612824 0.226405,-0.307967 0.625858,-0.448568 0.511165,-0.179922 0.967946,-0.08199 0.05693,0.0104 0.06708,0.0068 0.02708,-0.0095 0.01517,-0.04338 -0.05719,-0.162489 -0.434356,-0.250401 -0.497971,-0.117676 -1.154699,0.113482 -0.240349,0.0846 -0.414809,0.172638 -0.845596,0.40797 -0.42975,1.589403 0.160857,0.457002 0.468982,0.964891 0.561509,-0.155792 1.10991,-0.34882 0.135408,-0.04766 0.402649,-0.15314 0.26605,-0.108864 0.303287,-0.121971 0.07109,-0.02502 0.08834,0.05641 0.04046,0.179794 0.109566,0.376136 0.144176,0.409608 0.376935,0.822278 -0.08801,0.03098 -0.325224,0.167738 -0.235014,0.132181 -0.33657,0.167927 -0.142178,0.05005 -0.19848,0.009 -0.04934,-0.03209 -0.199775,-0.340579 -0.125789,-0.260092 -0.303769,-0.246906 -0.08958,0.0049 -0.69028,0.125025 0.870433,1.283943 1.465756,1.86195 -1.254368,0.738277 -2.60577,1.57919 -0.09462,-0.160729 -0.129175,-0.2589 -0.04289,-0.121867 -0.03249,-0.178792 0.01159,-0.05354 0.108192,-0.114174 0.468648,-0.279095 0.380475,-0.529599 0.03336,0.09479 -0.402013,-0.82867 -0.43199,-0.924647 -0.694127,-1.66939 -0.368185,-1.046026 -0.507722,-1.993715 -0.201596,0.162269 -0.408093,0.234953 -0.213268,0.07507 -0.378274,0.04944 L 91.02854,21.899544 q 0.476225,0.17479 2.033414,-0.373316 1.563961,-0.55049 2.67271,-1.172832 0.03485,-0.01988 0.06708,0.0068 0.661022,0.570101 0.982737,1.484103 z"
             style="font-size:7.34981px"
             id="path70218" />
          <path
             d="m 104.96641,23.978528 q -0.0869,0.22464 -0.27459,0.679308 -0.58742,0.04649 -0.81879,0.0762 -0.8009,0.102845 -1.73073,0.385067 0.0104,-0.623669 -0.0664,-1.221673 -0.0846,-0.658516 -0.24245,-1.014539 -0.59464,0.01847 -1.854744,0.03917 -0.06399,0.431551 -0.163109,0.871233 -0.112711,0.502936 -0.272182,0.867147 0.216413,0.02286 1.097545,-0.04686 -0.009,0.467866 0.0402,0.848737 -0.842753,-0.166766 -1.566381,-0.251137 -0.481384,-0.05759 -1.228004,-0.09559 0.08321,-0.140942 0.199997,-0.35856 l 0.155289,-0.284073 q 0.135,0.03694 0.432659,0.128972 0.442417,-0.809407 0.692114,-2.274295 0.26593,-1.535719 0.179483,-2.490689 0.522143,-0.132178 0.961863,-0.286336 0.45305,-0.163106 0.97079,-0.414121 0.63697,0.790202 1.48915,2.439236 0.39574,0.79947 1.04962,2.115764 0.0914,0.176412 0.43213,0.237586 0.26004,0.0245 0.51652,0.04946 z m -3.12859,-2.836577 q -0.0626,-0.487658 -0.72469,-0.402639 -0.48054,0.06171 -0.83562,0.367817 -0.371508,0.319074 -0.326713,0.66791 0.05942,0.462741 0.853203,0.36081 1.14261,-0.146726 1.03382,-0.993898 z"
             style="font-size:7.34981px"
             id="path70220" />
          <path
             d="m 110.76332,25.638328 q -0.0369,0.08294 -0.16763,0.351464 -0.15438,-0.04388 -1.10089,-0.395645 -0.88039,-0.327301 -0.99444,-0.378068 0.56703,-0.97243 0.70336,-2.372609 0.0563,-0.578645 -0.0512,-0.992955 -0.10393,-0.413961 -0.32538,-0.435523 -0.2679,-0.02608 -0.68275,0.420302 -0.45082,0.482545 -0.65769,1.125861 -0.0525,0.539355 0.15567,2.178603 -0.73665,-0.396239 -1.55461,-0.475878 -0.62508,-0.06086 -0.86523,0.146528 l 0.0498,-0.882162 q 0.13911,-0.05857 0.34271,-0.03875 0.25003,0.02434 0.48606,0.155496 -0.33251,-1.251116 -0.13463,-3.283518 0.0139,-0.142875 0.055,-0.416519 0.0411,-0.273645 0.0539,-0.405804 0.023,-0.235745 -0.24939,-0.327164 -0.11936,-0.03326 -0.39632,-0.114308 -0.084,-0.02621 -0.053,-0.344103 0.006,-0.06429 0.0364,-0.151505 0.33342,0.09376 2.88535,0.54775 -0.67222,0.75666 -0.79777,2.046111 -0.0167,0.17145 -0.0135,0.287142 0.2943,-0.800668 0.88083,-1.417836 0.47399,-0.498318 1.0503,-0.788359 0.48538,-0.244808 0.75684,-0.218378 0.46792,0.04556 0.65238,0.669282 0.16537,0.560569 0.0763,1.474971 -0.056,0.575074 -0.36199,1.68109 -0.30565,1.102445 -0.36095,1.670375 -0.0243,0.250031 0.0118,0.397776 0.13339,0.07429 0.57067,0.28633 z"
             style="font-size:7.34981px"
             id="path70222" />
          <path
             d="m 117.59055,25.68944 q -0.0598,0.17677 -0.27207,0.434562 -0.55122,0.677296 -1.51197,0.818208 -0.84151,0.124429 -1.73896,-0.179246 -1.2136,-0.410652 -1.61374,-1.265896 -0.36306,-0.774499 -0.0191,-1.79093 0.27491,-0.812464 0.96272,-1.579933 0.47791,-0.527824 0.87629,-0.787042 -1.00904,-0.220199 -1.98322,0.128335 -0.0557,0.03039 -0.0521,-0.0252 0.0828,-0.47968 0.31456,-1.545419 0.0103,-0.01925 0.0523,-0.02019 2.61528,1.138787 5.52859,2.124581 0.0578,0.01956 0.0166,0.08519 -0.83201,1.283187 -1.19887,2.098639 -0.2321,-0.120214 -0.58973,-0.339732 -0.16286,-0.123305 -0.1203,-0.249084 0.023,-0.06799 0.15336,-0.285295 0.13491,-0.219556 0.17402,-0.335137 0.0564,-0.166572 -0.026,-0.270219 -0.47276,-0.607034 -0.81245,-0.778806 -1.00754,0.951006 -1.48376,2.358371 -0.26457,0.78187 -0.20025,1.364356 0.0664,0.632429 0.50829,0.781966 0.32974,0.111578 0.81265,-0.01675 0.45111,-0.123927 0.50287,-0.276902 0.0207,-0.06119 -0.0201,-0.07499 -0.48686,-0.25188 -0.76658,-0.634468 -0.33275,-0.449786 -0.18667,-0.881514 0.0782,-0.231161 0.43478,-0.277211 0.35997,-0.0449 0.88688,0.133395 0.23456,0.07937 0.5369,0.227139 1.02251,0.505116 0.83502,1.059224 z"
             style="font-size:7.34981px"
             id="path70224" />
          <path
             d="m 123.24278,30.562146 q -0.21248,0.11346 -0.6514,0.335467 -0.4754,-0.348163 -0.67009,-0.476658 -0.67393,-0.444788 -1.56261,-0.837819 0.41489,-0.465759 0.747,-0.968958 0.36572,-0.554117 0.47846,-0.926903 -0.46259,-0.374102 -1.43083,-1.180833 -0.33013,0.285206 -0.69219,0.553639 -0.41364,0.307492 -0.77217,0.479359 0.14905,0.158566 0.86215,0.680812 -0.31192,0.348825 -0.52344,0.669314 -0.52968,-0.67638 -1.02288,-1.212583 -0.32714,-0.357809 -0.86802,-0.873884 0.15504,-0.05248 0.38555,-0.141136 l 0.30306,-0.11388 q 0.0782,0.116095 0.24363,0.380093 0.86346,-0.324505 2.00871,-1.271419 1.20378,-0.989986 1.76155,-1.769944 0.48187,0.240634 0.91564,0.410822 0.4497,0.172104 1.0058,0.319826 -0.0331,1.014423 -0.46371,2.820006 -0.22195,0.864004 -0.58562,2.288054 -0.0459,0.193312 0.17234,0.462043 0.18104,0.18828 0.35907,0.374582 z m -0.51908,-4.191037 q 0.27082,-0.410347 -0.28629,-0.778039 -0.40436,-0.266873 -0.87317,-0.266692 -0.48972,-7.17e-4 -0.68345,0.292816 -0.25699,0.38938 0.41095,0.830215 0.96147,0.634565 1.43196,-0.0783 z"
             style="font-size:7.34981px"
             id="path70226" />
          <path
             d="m 128.17361,34.088039 q -0.25363,0.222428 -0.72702,0.460971 -0.6313,0.319744 -1.45374,-0.0139 -0.85722,-0.346093 -1.71854,-1.328227 -0.84476,-0.963247 -0.96189,-1.853377 -0.10144,-0.741601 0.29789,-1.091807 0.25632,-0.224795 0.61254,-0.188734 0.40685,0.03938 0.83502,0.413302 0.21155,0.186794 0.40558,0.408044 0.3999,0.455991 0.49958,0.836359 0.098,0.36754 -0.11248,0.552108 -0.31838,0.279219 -0.83508,0.130916 -0.24721,-0.06961 -0.72792,-0.340162 -0.18378,-0.106138 -0.22695,-0.06828 -0.13221,0.115946 0.35761,0.674468 0.3857,0.439801 0.7799,0.633481 0.48777,0.240501 0.78457,-0.01979 0.0432,-0.03786 0.0904,-0.09834 0.65299,-0.844743 0.74053,-1.055168 0.1764,-0.441109 -0.22113,-0.894402 -0.10411,-0.118719 -0.38968,-0.379029 -0.2805,-0.259977 -0.39172,-0.386791 -0.7643,-0.871509 -0.0601,-1.489102 0.22395,-0.1964 0.62312,-0.388945 0.54122,-0.264614 1.16228,-0.07896 0.74332,0.221646 1.49105,1.074268 0.76904,0.876905 0.92448,1.609331 0.13951,0.66526 -0.24633,1.003635 -0.57471,0.504013 -1.37924,-0.413365 -0.3928,-0.447897 -0.51889,-0.891029 -0.12031,-0.414779 0.0578,-0.570952 0.25633,-0.224795 0.74783,0.0363 0.17871,0.105806 0.35979,0.214311 0.17194,0.09265 0.22591,0.04532 0.0729,-0.06389 -0.0412,-0.302784 -0.10898,-0.238564 -0.31958,-0.478701 -0.26028,-0.296799 -0.52036,-0.402852 -0.31209,-0.127263 -0.53603,0.06914 -0.10523,0.09228 -0.18709,0.254764 -0.17894,0.285814 -0.35789,0.571627 -0.18567,0.310804 -0.15465,0.574776 0.0409,0.345998 0.4408,0.801988 0.0355,0.04047 0.23288,0.249228 0.2001,0.206389 0.29475,0.314315 0.45432,0.518049 0.52362,0.896425 0.0853,0.48369 -0.40039,0.909617 z"
             style="font-size:7.34981px"
             id="path70228" />
          <path
             d="m 131.0051,40.621295 q -0.16866,0.07988 -0.50152,0.106506 -0.87006,0.07458 -1.63923,-0.518112 -0.67442,-0.518433 -1.07999,-1.374676 -0.54844,-1.157874 -0.21179,-2.040047 0.30437,-0.799384 1.27413,-1.258718 0.77516,-0.36716 1.805,-0.406228 0.71165,-0.02337 1.17493,0.08282 -0.54315,-0.878437 -1.4709,-1.336448 -0.0606,-0.01895 -0.0181,-0.05497 0.40235,-0.273965 1.3296,-0.848181 0.021,-0.006 0.0509,0.02356 0.9994,2.671657 2.31595,5.451204 0.0261,0.05514 -0.0497,0.07118 -1.5008,0.293914 -2.34202,0.597059 -0.0749,-0.250419 -0.16574,-0.660103 -0.0246,-0.202792 0.0954,-0.259633 0.0649,-0.03072 0.3117,-0.08807 0.25161,-0.05564 0.36189,-0.107874 0.15892,-0.07528 0.17617,-0.206544 0.10772,-0.761835 -0.005,-1.125429 -1.38404,-0.06319 -2.72678,0.572811 -0.74597,0.353333 -1.11999,0.804487 -0.4085,0.487341 -0.20879,0.908976 0.14902,0.314604 0.57696,0.572542 0.40268,0.238137 0.54863,0.169006 0.0584,-0.02765 0.0399,-0.06657 -0.15737,-0.525079 -0.0768,-0.992114 0.092,-0.551873 0.50393,-0.746975 0.22054,-0.104463 0.50151,0.119843 0.28251,0.22755 0.52062,0.730269 0.106,0.223791 0.20995,0.543857 0.34769,1.086175 -0.18097,1.336581 z"
             style="font-size:7.34981px"
             id="path70230" />
          <path
             d="m 130.10107,45.216937 q -0.0456,0.0097 -0.0561,-0.03946 -0.008,-0.03862 -0.0737,-0.641055 -0.0683,-0.598184 -0.15102,-0.987853 -0.13416,-0.631895 -0.73156,-2.167014 0.12989,-0.02758 0.65702,-0.03309 0.008,0.002 0.12729,0.28849 0.12824,0.310299 0.28773,0.404846 0.11767,0.07041 1.12692,0.0029 1.09723,-0.06785 1.89763,-0.237781 0.70211,-0.14906 0.93835,-0.349634 0.067,-0.04725 0.0432,-0.159583 -0.0171,-0.08074 -0.0911,-0.204454 -0.0704,-0.124456 -0.0749,-0.14552 -0.0127,-0.05968 0.17017,-0.252584 0.18358,-0.189395 0.2889,-0.211754 0.0491,-0.01043 0.0767,0.119455 0.0999,0.470411 0.44005,1.502486 0.38702,1.183557 0.65871,1.720215 0.0255,0.01659 -0.17456,0.05907 -0.18255,0.03876 -0.22405,-0.01847 -0.28869,-0.426654 -0.9253,-0.452926 -0.36192,-0.01121 -1.63583,0.174862 -0.23117,0.0344 -0.40318,0.07092 -1.21464,0.257874 -1.46395,0.604303 -0.0706,0.09937 -0.0401,0.243306 0.0216,0.101805 0.1093,0.255621 0.0919,0.156581 0.0972,0.181154 0.007,0.03159 -0.0929,0.06374 -0.46498,0.142742 -0.78093,0.209819 z"
             style="font-size:7.34981px"
             id="path70232" />
          <path
             d="m 134.09239,50.645711 q -0.4486,-4.76e-4 -0.63135,-0.255473 -0.18276,-0.254997 -0.18208,-0.897387 7.9e-4,-0.739288 0.20942,-1.19843 0.20144,-0.441205 0.5029,-0.440886 0.1579,1.68e-4 0.38386,0.126015 0.39813,0.219337 0.50525,0.729057 0.0284,0.287133 0.0604,0.57068 0.0215,0.0395 0.0502,0.03953 0.13996,1.48e-4 0.33772,-0.351342 0.22292,-0.394529 0.22337,-0.818004 6.4e-4,-0.599325 -0.45481,-0.908443 -0.39089,-0.269573 -1.02969,-0.270251 -0.31581,-3.35e-4 -0.6604,0.06031 -1.48961,0.249634 -2.057,0.593555 -0.45965,0.275848 -0.46013,0.724444 -1.8e-4,0.165084 0.0284,0.333787 0.10344,0.595846 0.45837,0.933568 0.17208,0.165266 0.75312,0.492461 0.0287,0.0431 0.007,0.04307 -0.17587,0.02135 -0.30148,0.02121 -0.63521,-6.74e-4 -1.12299,-0.273939 -0.64201,-0.359558 -0.77043,-1.095394 -0.10345,-0.588669 -0.10298,-1.033677 0.003,-2.3973 3.11401,-2.393999 1.50729,0.0016 2.27088,0.770408 0.68831,0.693364 0.68701,1.917135 -10e-4,1.385266 -0.63022,2.062878 -0.48145,0.519862 -1.18844,0.519112 z"
             style="font-size:7.34981px"
             id="path70234" />
          <path
             d="m 132.08954,54.548791 q -0.0738,-0.01536 -0.26645,-0.128772 -0.20175,-0.122636 -0.21507,-0.129074 0.13137,-0.419869 0.25423,-1.010134 0.0431,-0.207295 0.0639,-0.34227 0.16536,-1.076284 0.17998,-1.146554 0.0651,-0.312699 0.14121,-0.326182 0.0416,-0.006 0.12589,0.01154 0.35838,0.07459 0.6562,0.422502 -0.37773,1.321672 -0.89335,2.636638 -0.004,0.02108 -0.0465,0.01231 z"
             style="font-size:7.34981px"
             id="path70236" />
        </g>
        <text
           xml:space="preserve"
           style="font-style:normal;font-variant:normal;font-weight:normal;font-stretch:normal;font-size:10.1111px;line-height:1.25;font-family:Ravie;-inkscape-font-specification:'Ravie, Normal';font-variant-ligatures:normal;font-variant-caps:normal;font-variant-numeric:normal;font-variant-east-asian:normal;writing-mode:lr-tb;text-orientation:sideways;opacity:1;stroke-width:0.252777"
           id="text51180"
           inkscape:transform-center-x="-45.81802"
           inkscape:transform-center-y="15.850917"
           transform="rotate(-1.0684378)"
           x="12.205446"
           y="65.20594"><tspan
             id="tspan51178"
             style="font-style:normal;font-variant:normal;font-weight:normal;font-stretch:normal;font-size:10.1111px;font-family:Ravie;-inkscape-font-specification:'Ravie, Normal';font-variant-ligatures:normal;font-variant-caps:normal;font-variant-numeric:normal;font-variant-east-asian:normal;writing-mode:lr-tb;text-orientation:sideways;stroke-width:0.252777">WEBDEV</tspan></text>
      </g>
      <text
         xml:space="preserve"
         style="font-style:normal;font-variant:normal;font-weight:normal;font-stretch:normal;font-size:46.666px;line-height:1.25;font-family:Ravie;-inkscape-font-specification:'Ravie, Normal';font-variant-ligatures:normal;font-variant-caps:normal;font-variant-numeric:normal;font-variant-east-asian:normal;stroke:#ff0000;stroke-width:1.16664"
         x="113.64339"
         y="74.957649"
         id="text908"
         transform="scale(0.54749896,1.8264875)"><tspan
           sodipodi:role="line"
           id="tspan906"
           style="font-style:normal;font-variant:normal;font-weight:normal;font-stretch:normal;font-size:46.666px;font-family:Ravie;-inkscape-font-specification:'Ravie, Normal';font-variant-ligatures:normal;font-variant-caps:normal;font-variant-numeric:normal;font-variant-east-asian:normal;stroke:#ff0000;stroke-width:1.16664"
           x="113.64339"
           y="74.957649">www.</tspan></text>
    </g>
  </g>
</svg>
